<mxfile host="app.diagrams.net" modified="2022-11-26T21:26:24.935Z" agent="5.0 (Windows NT 10.0; Win64; x64) AppleWebKit/537.36 (KHTML, like Gecko) Chrome/107.0.0.0 Safari/537.36" version="20.6.0" etag="fpqYCThE9d48az3ddzDy" type="github">
  <diagram id="krD_crVh2RLkrdzZxpcf" name="페이지-1">
    <mxGraphModel dx="2249" dy="754" grid="1" gridSize="10" guides="1" tooltips="1" connect="1" arrows="1" fold="1" page="1" pageScale="1" pageWidth="827" pageHeight="1169" math="0" shadow="0">
      <root>
        <mxCell id="0" />
        <mxCell id="1" parent="0" />
        <mxCell id="FyEQ6QdKWc0T0m-bB2NO-71" style="edgeStyle=orthogonalEdgeStyle;rounded=0;orthogonalLoop=1;jettySize=auto;html=1;exitX=1;exitY=0.5;exitDx=0;exitDy=0;entryX=0.5;entryY=0;entryDx=0;entryDy=0;" edge="1" parent="1" source="FyEQ6QdKWc0T0m-bB2NO-17" target="FyEQ6QdKWc0T0m-bB2NO-65">
          <mxGeometry relative="1" as="geometry" />
        </mxCell>
        <mxCell id="FyEQ6QdKWc0T0m-bB2NO-17" value="&lt;b&gt;Gear Ratio&lt;/b&gt;" style="rounded=0;whiteSpace=wrap;html=1;" vertex="1" parent="1">
          <mxGeometry x="380" y="70" width="90" height="30" as="geometry" />
        </mxCell>
        <mxCell id="FyEQ6QdKWc0T0m-bB2NO-72" style="edgeStyle=orthogonalEdgeStyle;rounded=0;orthogonalLoop=1;jettySize=auto;html=1;exitX=1;exitY=0.5;exitDx=0;exitDy=0;entryX=0.5;entryY=0;entryDx=0;entryDy=0;" edge="1" parent="1" source="FyEQ6QdKWc0T0m-bB2NO-18" target="FyEQ6QdKWc0T0m-bB2NO-69">
          <mxGeometry relative="1" as="geometry" />
        </mxCell>
        <mxCell id="FyEQ6QdKWc0T0m-bB2NO-18" value="Torque Offset" style="text;html=1;strokeColor=none;fillColor=none;align=center;verticalAlign=middle;whiteSpace=wrap;rounded=0;" vertex="1" parent="1">
          <mxGeometry x="-30" y="40" width="150" height="30" as="geometry" />
        </mxCell>
        <mxCell id="FyEQ6QdKWc0T0m-bB2NO-62" style="edgeStyle=orthogonalEdgeStyle;rounded=0;orthogonalLoop=1;jettySize=auto;html=1;exitX=1;exitY=0.5;exitDx=0;exitDy=0;entryX=0;entryY=0.5;entryDx=0;entryDy=0;" edge="1" parent="1" source="FyEQ6QdKWc0T0m-bB2NO-19" target="FyEQ6QdKWc0T0m-bB2NO-17">
          <mxGeometry relative="1" as="geometry" />
        </mxCell>
        <mxCell id="FyEQ6QdKWc0T0m-bB2NO-19" value="Velocity Offset" style="text;html=1;strokeColor=none;fillColor=none;align=center;verticalAlign=middle;whiteSpace=wrap;rounded=0;" vertex="1" parent="1">
          <mxGeometry x="-30" y="70" width="150" height="30" as="geometry" />
        </mxCell>
        <mxCell id="FyEQ6QdKWc0T0m-bB2NO-38" style="edgeStyle=orthogonalEdgeStyle;rounded=0;orthogonalLoop=1;jettySize=auto;html=1;exitX=1;exitY=0.5;exitDx=0;exitDy=0;entryX=0;entryY=0.25;entryDx=0;entryDy=0;" edge="1" parent="1" source="FyEQ6QdKWc0T0m-bB2NO-21" target="FyEQ6QdKWc0T0m-bB2NO-37">
          <mxGeometry relative="1" as="geometry" />
        </mxCell>
        <mxCell id="FyEQ6QdKWc0T0m-bB2NO-21" value="Target Position" style="text;html=1;strokeColor=none;fillColor=none;align=center;verticalAlign=middle;whiteSpace=wrap;rounded=0;" vertex="1" parent="1">
          <mxGeometry x="-30" y="100" width="150" height="30" as="geometry" />
        </mxCell>
        <mxCell id="FyEQ6QdKWc0T0m-bB2NO-39" style="edgeStyle=orthogonalEdgeStyle;rounded=0;orthogonalLoop=1;jettySize=auto;html=1;exitX=1;exitY=0.5;exitDx=0;exitDy=0;entryX=0;entryY=0.75;entryDx=0;entryDy=0;" edge="1" parent="1" source="FyEQ6QdKWc0T0m-bB2NO-24" target="FyEQ6QdKWc0T0m-bB2NO-37">
          <mxGeometry relative="1" as="geometry" />
        </mxCell>
        <mxCell id="FyEQ6QdKWc0T0m-bB2NO-24" value="Software Position Limit" style="text;html=1;strokeColor=none;fillColor=none;align=center;verticalAlign=middle;whiteSpace=wrap;rounded=0;" vertex="1" parent="1">
          <mxGeometry x="-30" y="130" width="150" height="30" as="geometry" />
        </mxCell>
        <mxCell id="FyEQ6QdKWc0T0m-bB2NO-41" style="edgeStyle=orthogonalEdgeStyle;rounded=0;orthogonalLoop=1;jettySize=auto;html=1;exitX=1;exitY=0.5;exitDx=0;exitDy=0;entryX=0;entryY=0.25;entryDx=0;entryDy=0;" edge="1" parent="1" source="FyEQ6QdKWc0T0m-bB2NO-27" target="FyEQ6QdKWc0T0m-bB2NO-40">
          <mxGeometry relative="1" as="geometry" />
        </mxCell>
        <mxCell id="FyEQ6QdKWc0T0m-bB2NO-27" value="Profile Velocity" style="text;html=1;strokeColor=none;fillColor=none;align=center;verticalAlign=middle;whiteSpace=wrap;rounded=0;" vertex="1" parent="1">
          <mxGeometry x="-30" y="160" width="150" height="30" as="geometry" />
        </mxCell>
        <mxCell id="FyEQ6QdKWc0T0m-bB2NO-42" style="edgeStyle=orthogonalEdgeStyle;rounded=0;orthogonalLoop=1;jettySize=auto;html=1;exitX=1;exitY=0.5;exitDx=0;exitDy=0;entryX=0;entryY=0.75;entryDx=0;entryDy=0;" edge="1" parent="1" source="FyEQ6QdKWc0T0m-bB2NO-28" target="FyEQ6QdKWc0T0m-bB2NO-40">
          <mxGeometry relative="1" as="geometry" />
        </mxCell>
        <mxCell id="FyEQ6QdKWc0T0m-bB2NO-28" value="Maximum Profile Velocity" style="text;html=1;strokeColor=none;fillColor=none;align=center;verticalAlign=middle;whiteSpace=wrap;rounded=0;" vertex="1" parent="1">
          <mxGeometry x="-30" y="190" width="150" height="30" as="geometry" />
        </mxCell>
        <mxCell id="FyEQ6QdKWc0T0m-bB2NO-45" style="edgeStyle=orthogonalEdgeStyle;rounded=0;orthogonalLoop=1;jettySize=auto;html=1;exitX=1;exitY=0.5;exitDx=0;exitDy=0;entryX=0;entryY=0.25;entryDx=0;entryDy=0;" edge="1" parent="1" source="FyEQ6QdKWc0T0m-bB2NO-31" target="FyEQ6QdKWc0T0m-bB2NO-43">
          <mxGeometry relative="1" as="geometry" />
        </mxCell>
        <mxCell id="FyEQ6QdKWc0T0m-bB2NO-31" value="Profile Acceleration" style="text;html=1;strokeColor=none;fillColor=none;align=center;verticalAlign=middle;whiteSpace=wrap;rounded=0;" vertex="1" parent="1">
          <mxGeometry x="-30" y="220" width="150" height="30" as="geometry" />
        </mxCell>
        <mxCell id="FyEQ6QdKWc0T0m-bB2NO-46" style="edgeStyle=orthogonalEdgeStyle;rounded=0;orthogonalLoop=1;jettySize=auto;html=1;exitX=1;exitY=0.5;exitDx=0;exitDy=0;entryX=0;entryY=0.75;entryDx=0;entryDy=0;" edge="1" parent="1" source="FyEQ6QdKWc0T0m-bB2NO-32" target="FyEQ6QdKWc0T0m-bB2NO-43">
          <mxGeometry relative="1" as="geometry" />
        </mxCell>
        <mxCell id="FyEQ6QdKWc0T0m-bB2NO-32" value="Profile Deceleration" style="text;html=1;strokeColor=none;fillColor=none;align=center;verticalAlign=middle;whiteSpace=wrap;rounded=0;" vertex="1" parent="1">
          <mxGeometry x="-30" y="250" width="150" height="30" as="geometry" />
        </mxCell>
        <mxCell id="FyEQ6QdKWc0T0m-bB2NO-48" style="edgeStyle=orthogonalEdgeStyle;rounded=0;orthogonalLoop=1;jettySize=auto;html=1;exitX=1;exitY=0.5;exitDx=0;exitDy=0;" edge="1" parent="1" source="FyEQ6QdKWc0T0m-bB2NO-33" target="FyEQ6QdKWc0T0m-bB2NO-44">
          <mxGeometry relative="1" as="geometry" />
        </mxCell>
        <mxCell id="FyEQ6QdKWc0T0m-bB2NO-33" value="Quick Stop Deceleration" style="text;html=1;strokeColor=none;fillColor=none;align=center;verticalAlign=middle;whiteSpace=wrap;rounded=0;" vertex="1" parent="1">
          <mxGeometry x="-30" y="280" width="150" height="30" as="geometry" />
        </mxCell>
        <mxCell id="FyEQ6QdKWc0T0m-bB2NO-58" style="edgeStyle=orthogonalEdgeStyle;rounded=0;orthogonalLoop=1;jettySize=auto;html=1;exitX=1;exitY=0.5;exitDx=0;exitDy=0;entryX=0;entryY=0.25;entryDx=0;entryDy=0;" edge="1" parent="1" source="FyEQ6QdKWc0T0m-bB2NO-34" target="FyEQ6QdKWc0T0m-bB2NO-54">
          <mxGeometry relative="1" as="geometry" />
        </mxCell>
        <mxCell id="FyEQ6QdKWc0T0m-bB2NO-34" value="Controlword" style="text;html=1;strokeColor=none;fillColor=none;align=center;verticalAlign=middle;whiteSpace=wrap;rounded=0;" vertex="1" parent="1">
          <mxGeometry x="-30" y="310" width="150" height="30" as="geometry" />
        </mxCell>
        <mxCell id="FyEQ6QdKWc0T0m-bB2NO-59" style="edgeStyle=orthogonalEdgeStyle;rounded=0;orthogonalLoop=1;jettySize=auto;html=1;exitX=1;exitY=0.5;exitDx=0;exitDy=0;entryX=0;entryY=0.75;entryDx=0;entryDy=0;" edge="1" parent="1" source="FyEQ6QdKWc0T0m-bB2NO-35" target="FyEQ6QdKWc0T0m-bB2NO-54">
          <mxGeometry relative="1" as="geometry" />
        </mxCell>
        <mxCell id="FyEQ6QdKWc0T0m-bB2NO-35" value="Quick Stop Option Code" style="text;html=1;strokeColor=none;fillColor=none;align=center;verticalAlign=middle;whiteSpace=wrap;rounded=0;" vertex="1" parent="1">
          <mxGeometry x="-30" y="340" width="150" height="30" as="geometry" />
        </mxCell>
        <mxCell id="FyEQ6QdKWc0T0m-bB2NO-57" style="edgeStyle=orthogonalEdgeStyle;rounded=0;orthogonalLoop=1;jettySize=auto;html=1;exitX=1;exitY=0.5;exitDx=0;exitDy=0;entryX=0;entryY=0.5;entryDx=0;entryDy=0;" edge="1" parent="1" source="FyEQ6QdKWc0T0m-bB2NO-37" target="FyEQ6QdKWc0T0m-bB2NO-51">
          <mxGeometry relative="1" as="geometry" />
        </mxCell>
        <mxCell id="FyEQ6QdKWc0T0m-bB2NO-37" value="" style="whiteSpace=wrap;html=1;aspect=fixed;" vertex="1" parent="1">
          <mxGeometry x="160" y="100" width="60" height="60" as="geometry" />
        </mxCell>
        <mxCell id="FyEQ6QdKWc0T0m-bB2NO-56" style="edgeStyle=orthogonalEdgeStyle;rounded=0;orthogonalLoop=1;jettySize=auto;html=1;exitX=1;exitY=0.5;exitDx=0;exitDy=0;entryX=0;entryY=0.5;entryDx=0;entryDy=0;" edge="1" parent="1" source="FyEQ6QdKWc0T0m-bB2NO-40" target="FyEQ6QdKWc0T0m-bB2NO-52">
          <mxGeometry relative="1" as="geometry" />
        </mxCell>
        <mxCell id="FyEQ6QdKWc0T0m-bB2NO-40" value="" style="whiteSpace=wrap;html=1;aspect=fixed;" vertex="1" parent="1">
          <mxGeometry x="160" y="160" width="60" height="60" as="geometry" />
        </mxCell>
        <mxCell id="FyEQ6QdKWc0T0m-bB2NO-43" value="" style="whiteSpace=wrap;html=1;" vertex="1" parent="1">
          <mxGeometry x="160" y="220" width="60" height="60" as="geometry" />
        </mxCell>
        <mxCell id="FyEQ6QdKWc0T0m-bB2NO-44" value="" style="whiteSpace=wrap;html=1;" vertex="1" parent="1">
          <mxGeometry x="160" y="280" width="60" height="30" as="geometry" />
        </mxCell>
        <mxCell id="FyEQ6QdKWc0T0m-bB2NO-55" style="edgeStyle=orthogonalEdgeStyle;rounded=0;orthogonalLoop=1;jettySize=auto;html=1;exitX=1;exitY=0.5;exitDx=0;exitDy=0;entryX=0;entryY=0.5;entryDx=0;entryDy=0;" edge="1" parent="1" source="FyEQ6QdKWc0T0m-bB2NO-49" target="FyEQ6QdKWc0T0m-bB2NO-53">
          <mxGeometry relative="1" as="geometry" />
        </mxCell>
        <mxCell id="FyEQ6QdKWc0T0m-bB2NO-49" value="" style="whiteSpace=wrap;html=1;" vertex="1" parent="1">
          <mxGeometry x="160" y="220" width="60" height="90" as="geometry" />
        </mxCell>
        <mxCell id="FyEQ6QdKWc0T0m-bB2NO-51" value="" style="whiteSpace=wrap;html=1;aspect=fixed;" vertex="1" parent="1">
          <mxGeometry x="260" y="100" width="60" height="60" as="geometry" />
        </mxCell>
        <mxCell id="FyEQ6QdKWc0T0m-bB2NO-52" value="" style="whiteSpace=wrap;html=1;aspect=fixed;" vertex="1" parent="1">
          <mxGeometry x="260" y="160" width="60" height="60" as="geometry" />
        </mxCell>
        <mxCell id="FyEQ6QdKWc0T0m-bB2NO-53" value="" style="whiteSpace=wrap;html=1;aspect=fixed;" vertex="1" parent="1">
          <mxGeometry x="260" y="235" width="60" height="60" as="geometry" />
        </mxCell>
        <mxCell id="FyEQ6QdKWc0T0m-bB2NO-54" value="" style="whiteSpace=wrap;html=1;aspect=fixed;" vertex="1" parent="1">
          <mxGeometry x="260" y="310" width="60" height="60" as="geometry" />
        </mxCell>
        <mxCell id="FyEQ6QdKWc0T0m-bB2NO-61" style="edgeStyle=orthogonalEdgeStyle;rounded=0;orthogonalLoop=1;jettySize=auto;html=1;exitX=1;exitY=0.25;exitDx=0;exitDy=0;entryX=0;entryY=0.5;entryDx=0;entryDy=0;" edge="1" parent="1" source="FyEQ6QdKWc0T0m-bB2NO-7" target="FyEQ6QdKWc0T0m-bB2NO-60">
          <mxGeometry relative="1" as="geometry" />
        </mxCell>
        <mxCell id="FyEQ6QdKWc0T0m-bB2NO-7" value="&lt;b&gt;Trajectory&lt;br&gt;Generator&lt;/b&gt;" style="rounded=0;whiteSpace=wrap;html=1;" vertex="1" parent="1">
          <mxGeometry x="260" y="100" width="80" height="270" as="geometry" />
        </mxCell>
        <mxCell id="FyEQ6QdKWc0T0m-bB2NO-64" value="" style="edgeStyle=orthogonalEdgeStyle;rounded=0;orthogonalLoop=1;jettySize=auto;html=1;" edge="1" parent="1" source="FyEQ6QdKWc0T0m-bB2NO-60" target="FyEQ6QdKWc0T0m-bB2NO-63">
          <mxGeometry relative="1" as="geometry" />
        </mxCell>
        <mxCell id="FyEQ6QdKWc0T0m-bB2NO-60" value="&lt;b&gt;Gear Ratio&lt;/b&gt;" style="rounded=0;whiteSpace=wrap;html=1;" vertex="1" parent="1">
          <mxGeometry x="380" y="152" width="90" height="30" as="geometry" />
        </mxCell>
        <mxCell id="FyEQ6QdKWc0T0m-bB2NO-66" value="" style="edgeStyle=orthogonalEdgeStyle;rounded=0;orthogonalLoop=1;jettySize=auto;html=1;" edge="1" parent="1" source="FyEQ6QdKWc0T0m-bB2NO-63" target="FyEQ6QdKWc0T0m-bB2NO-65">
          <mxGeometry relative="1" as="geometry" />
        </mxCell>
        <mxCell id="FyEQ6QdKWc0T0m-bB2NO-63" value="&lt;b&gt;Position&lt;br&gt;Control&lt;br&gt;&lt;/b&gt;" style="rounded=0;whiteSpace=wrap;html=1;" vertex="1" parent="1">
          <mxGeometry x="510" y="152" width="70" height="30" as="geometry" />
        </mxCell>
        <mxCell id="FyEQ6QdKWc0T0m-bB2NO-68" value="" style="edgeStyle=orthogonalEdgeStyle;rounded=0;orthogonalLoop=1;jettySize=auto;html=1;" edge="1" parent="1" source="FyEQ6QdKWc0T0m-bB2NO-65" target="FyEQ6QdKWc0T0m-bB2NO-67">
          <mxGeometry relative="1" as="geometry" />
        </mxCell>
        <mxCell id="FyEQ6QdKWc0T0m-bB2NO-65" value="" style="ellipse;whiteSpace=wrap;html=1;aspect=fixed;" vertex="1" parent="1">
          <mxGeometry x="630" y="157" width="20" height="20" as="geometry" />
        </mxCell>
        <mxCell id="FyEQ6QdKWc0T0m-bB2NO-70" value="" style="edgeStyle=orthogonalEdgeStyle;rounded=0;orthogonalLoop=1;jettySize=auto;html=1;" edge="1" parent="1" source="FyEQ6QdKWc0T0m-bB2NO-67" target="FyEQ6QdKWc0T0m-bB2NO-69">
          <mxGeometry relative="1" as="geometry" />
        </mxCell>
        <mxCell id="FyEQ6QdKWc0T0m-bB2NO-67" value="&lt;b&gt;Velocity&lt;br&gt;Control&lt;br&gt;&lt;/b&gt;" style="rounded=0;whiteSpace=wrap;html=1;" vertex="1" parent="1">
          <mxGeometry x="700" y="152" width="70" height="30" as="geometry" />
        </mxCell>
        <mxCell id="FyEQ6QdKWc0T0m-bB2NO-75" value="" style="edgeStyle=orthogonalEdgeStyle;rounded=0;orthogonalLoop=1;jettySize=auto;html=1;" edge="1" parent="1" source="FyEQ6QdKWc0T0m-bB2NO-69" target="FyEQ6QdKWc0T0m-bB2NO-74">
          <mxGeometry relative="1" as="geometry" />
        </mxCell>
        <mxCell id="FyEQ6QdKWc0T0m-bB2NO-69" value="" style="ellipse;whiteSpace=wrap;html=1;aspect=fixed;" vertex="1" parent="1">
          <mxGeometry x="827" y="157" width="20" height="20" as="geometry" />
        </mxCell>
        <mxCell id="FyEQ6QdKWc0T0m-bB2NO-77" value="" style="edgeStyle=orthogonalEdgeStyle;rounded=0;orthogonalLoop=1;jettySize=auto;html=1;" edge="1" parent="1" source="FyEQ6QdKWc0T0m-bB2NO-74" target="FyEQ6QdKWc0T0m-bB2NO-76">
          <mxGeometry relative="1" as="geometry" />
        </mxCell>
        <mxCell id="FyEQ6QdKWc0T0m-bB2NO-74" value="&lt;b&gt;Torque&lt;br&gt;Control&lt;br&gt;&lt;/b&gt;" style="rounded=0;whiteSpace=wrap;html=1;" vertex="1" parent="1">
          <mxGeometry x="900" y="152" width="70" height="30" as="geometry" />
        </mxCell>
        <mxCell id="FyEQ6QdKWc0T0m-bB2NO-79" value="" style="edgeStyle=orthogonalEdgeStyle;rounded=0;orthogonalLoop=1;jettySize=auto;html=1;" edge="1" parent="1" source="FyEQ6QdKWc0T0m-bB2NO-76" target="FyEQ6QdKWc0T0m-bB2NO-78">
          <mxGeometry relative="1" as="geometry" />
        </mxCell>
        <mxCell id="FyEQ6QdKWc0T0m-bB2NO-76" value="&lt;b&gt;M&lt;/b&gt;" style="ellipse;whiteSpace=wrap;html=1;aspect=fixed;" vertex="1" parent="1">
          <mxGeometry x="1020" y="137" width="60" height="60" as="geometry" />
        </mxCell>
        <mxCell id="FyEQ6QdKWc0T0m-bB2NO-78" value="&lt;b&gt;Enc.&lt;/b&gt;" style="ellipse;whiteSpace=wrap;html=1;aspect=fixed;" vertex="1" parent="1">
          <mxGeometry x="1020" y="235" width="60" height="60" as="geometry" />
        </mxCell>
        <mxCell id="FyEQ6QdKWc0T0m-bB2NO-80" value="&lt;b&gt;+&lt;/b&gt;" style="text;html=1;strokeColor=none;fillColor=none;align=center;verticalAlign=middle;whiteSpace=wrap;rounded=0;" vertex="1" parent="1">
          <mxGeometry x="600" y="127" width="30" height="30" as="geometry" />
        </mxCell>
        <mxCell id="FyEQ6QdKWc0T0m-bB2NO-81" value="&lt;b&gt;+&lt;/b&gt;" style="text;html=1;strokeColor=none;fillColor=none;align=center;verticalAlign=middle;whiteSpace=wrap;rounded=0;" vertex="1" parent="1">
          <mxGeometry x="650" y="127" width="30" height="30" as="geometry" />
        </mxCell>
        <mxCell id="FyEQ6QdKWc0T0m-bB2NO-82" value="&lt;b&gt;+&lt;/b&gt;" style="text;html=1;strokeColor=none;fillColor=none;align=center;verticalAlign=middle;whiteSpace=wrap;rounded=0;" vertex="1" parent="1">
          <mxGeometry x="797" y="127" width="30" height="30" as="geometry" />
        </mxCell>
        <mxCell id="FyEQ6QdKWc0T0m-bB2NO-83" value="&lt;b&gt;+&lt;/b&gt;" style="text;html=1;strokeColor=none;fillColor=none;align=center;verticalAlign=middle;whiteSpace=wrap;rounded=0;" vertex="1" parent="1">
          <mxGeometry x="847" y="127" width="30" height="30" as="geometry" />
        </mxCell>
        <mxCell id="FyEQ6QdKWc0T0m-bB2NO-84" value="" style="endArrow=classic;html=1;rounded=0;" edge="1" parent="1">
          <mxGeometry width="50" height="50" relative="1" as="geometry">
            <mxPoint x="540" y="180" as="sourcePoint" />
            <mxPoint x="590" y="130" as="targetPoint" />
          </mxGeometry>
        </mxCell>
      </root>
    </mxGraphModel>
  </diagram>
</mxfile>
